# xmcd
#
# Track frame offsets: 
#        150
#        19880
#        44877
#        62862
#        79019
#        103963
#        119730
#        139993
#        156185
#        173610
#        194434
#        216407
#        237827
#
# Disc length: 3479 seconds
#
# Revision: 0
# Processed by: cddbd v1.5.2PL0 Copyright (c) Steve Scherf et al.
# Submitted via: ExactAudioCopy v0.99pb3
#
DISCID=c80d950d
DTITLE=Loiri - Inari
DYEAR=2007
DGENRE=Blues
TTITLE0=Kaksi lensi yli käenpesän
TTITLE1=Keihäänkärki
TTITLE2=Koti-ikävä
TTITLE3=Kurjuuden kuningas
TTITLE4=Lapsuuden sankarille
TTITLE5=Minun nimeni on nimes sun
TTITLE6=Ruoste
TTITLE7=Siipeen jos saan
TTITLE8=Sinä lähdit pois
TTITLE9=Talo meren rannalla
TTITLE10=Viime yönä ennen kahta
TTITLE11=Voi kuinka me sinua kaivataan
TTITLE12=Yhtenä iltana
EXTD=
EXTT0=
EXTT1=
EXTT2=
EXTT3=
EXTT4=
EXTT5=
EXTT6=
EXTT7=
EXTT8=
EXTT9=
EXTT10=
EXTT11=
EXTT12=
PLAYORDER=
